<svg width="2014" height="571" viewBox="0 0 2014 571" fill="none" xmlns="http://www.w3.org/2000/svg">
<g clip-path="url(#clip0_85_2686)">
<path d="M10 548.646C-63.1835 539.758 -136.271 530.301 -209.25 520.67C-562.52 474.06 -914.73 419.5 -1266.56 363.15C-1720.52 290.44 -2627 136.27 -2627 136.27C-2627 136.27 -1720.51 290.44 -1266.54 363.15" stroke="url(#paint0_linear_85_2686)" stroke-width="2" stroke-miterlimit="10"/>
<path d="M2209.33 172.179C1990.44 208.939 1773.16 255.359 1560.04 317.639C1412.28 360.829 1267.35 414.929 1117.66 451.299C928.14 497.339 733.51 502.289 539.5 492.499C328.35 481.844 117.859 457.527 -91.7786 428.948M539.5 492.489C733.51 502.279 928.14 497.329 1117.66 451.289C1267.35 414.919 1412.28 360.819 1560.04 317.629C1773.16 255.339 1990.44 208.919 2209.33 172.169M2142.32 153.109C1920.12 177.379 1698.51 209.979 1480.61 260.319C1333.07 294.399 1188.65 340.409 1041.25 374.809C856.56 417.909 668.28 428.469 479.09 424.049C288.369 419.593 97.8931 403.976 -92 384.13M479.08 424.049C668.28 428.469 856.55 417.909 1041.24 374.809C1188.64 340.409 1333.06 294.409 1480.6 260.319C1698.5 209.979 1920.12 177.379 2142.31 153.109M2115.2 146.149C1889.85 164.749 1664.62 191.129 1442.95 236.519C1294.85 266.839 1150.1 309.759 1003.04 344.269C821.13 386.959 636.28 401.289 449.7 400.269M2115.2 146.169C1889.85 164.779 1664.62 191.149 1442.95 236.539C1294.85 266.859 1150.1 309.779 1003.04 344.289C821.13 386.979 636.28 401.309 449.7 400.289C268.945 399.299 88.2418 388.091 -92 372.667M2082.85 141.499C1856.06 154.769 1629 175.169 1405.29 215.679C1256.65 242.599 1111.58 282.799 964.83 317.909C786.94 360.469 606.7 379.169 423.93 382.079C251.941 384.823 79.7963 377.964 -92 366.833M423.93 382.089C606.7 379.179 786.93 360.479 964.83 317.919C1111.58 282.809 1256.65 242.599 1405.29 215.689C1629 175.179 1856.06 154.779 2082.85 141.509M2046.37 138.389C1819.05 146.679 1591.12 161.509 1366.31 197.469C1217.6 221.259 1072.66 258.939 926.64 294.969C751.58 338.169 574.75 361.529 394.56 368.509C232.524 374.787 70.1539 372.213 -92 365.387M394.54 368.519C574.73 361.539 751.56 338.169 926.62 294.979C1072.64 258.949 1217.58 221.259 1366.29 197.479C1591.1 161.519 1819.03 146.679 2046.35 138.399M2019.27 136.089C1788.72 139.489 1557.19 148.929 1328.62 180.959C1179.4 201.869 1034.16 237.339 888.42 274.749C717.35 318.659 545.12 347.009 368.75 358.399C215.481 368.299 61.6978 369.862 -92 367.144M368.74 358.389C545.11 346.999 717.34 318.649 888.41 274.739C1034.15 237.329 1179.39 201.869 1328.61 180.949C1557.18 148.919 1788.71 139.469 2019.26 136.079M1988.06 134.769C1755.2 133.509 1521.03 137.769 1289.62 166.009C1140.36 184.229 995.23 217.539 850.21 256.479C681.91 301.669 513.11 335.209 339.35 351.079C196.031 364.17 52.0375 369.599 -92 370.821M339.34 351.069C513.1 335.199 681.9 301.659 850.2 256.469C995.22 217.529 1140.35 184.219 1289.61 165.999C1521.01 137.759 1755.19 133.499 1988.05 134.759M1956.86 133.999C1720.59 128.159 1482.65 127.319 1247.34 152.259C1099.21 167.959 955.23 199.089 812.02 239.429C646.43 286.079 481.1 324.969 309.98 345.449C176.579 361.414 42.3761 370.376 -92 375.245M309.96 345.439C481.08 324.959 646.41 286.069 812 239.419C955.21 199.079 1099.19 167.949 1247.32 152.249C1482.63 127.309 1720.58 128.149 1956.84 133.989M1208.35 138.439C1446.52 117.169 1687.08 123.089 1925.65 133.439C1687.08 123.079 1446.52 117.169 1208.35 138.439ZM1208.35 138.439C1060.24 151.669 916.28 180.749 773.81 222.879M773.81 222.879C611.37 270.919 450.03 315.139 282.13 340.289M773.81 222.879C611.36 270.919 450.03 315.139 282.13 340.289M282.13 340.289C158.132 358.865 33.2159 371.03 -92 379.233M1894.44 132.809C1507.67 108.949 1110.14 90.0194 735.6 206.099C575.07 255.859 416.64 305.579 250.8 335.399C137.315 355.802 22.8591 370.545 -92 381.591M1130.38 109.839C1374.35 96.2194 1620.05 112.369 1863.24 131.779C1620.05 112.379 1374.35 96.2294 1130.38 109.839ZM1130.38 109.839C982.48 118.089 838.38 142.719 697.39 188.349M1130.38 109.839C982.47 118.089 838.37 142.719 697.39 188.349M697.39 188.349C539.83 239.349 385.43 294.249 222.95 328.629M697.39 188.349C539.82 239.359 385.43 294.249 222.95 328.629M222.95 328.629C118.808 350.664 13.6498 367.644 -92 381.167M1091.39 94.0494C1338.3 84.6095 1586.52 106.039 1832.03 130.069C1586.52 106.039 1338.3 84.6195 1091.39 94.0494ZM1091.39 94.0494C943.71 99.6894 799.44 121.739 659.19 168.909M1091.39 94.0494C943.72 99.6894 799.44 121.739 659.19 168.909M659.19 168.909C503.37 221.319 351.94 281.499 191.7 320.359C97.9739 343.087 3.25957 361.512 -92 376.847M1052.4 76.5794C1302.28 71.6894 1552.99 98.5394 1800.82 127.349C1552.99 98.5494 1302.28 71.6894 1052.4 76.5794ZM1052.4 76.5794C905.07 79.4594 760.53 98.5894 620.98 147.029M620.98 147.029C467.93 200.159 320.54 265.009 163.86 308.029M620.98 147.029C467.93 200.149 320.54 265.009 163.86 308.029M163.86 308.029C79.4048 331.221 -6.00729 350.731 -92 367.485M693.798 456.246C823.459 453.259 952.445 440.218 1079.46 410.229C1229.1 374.909 1374.89 324.719 1523.72 286.169C1738.17 230.629 1956.48 191.649 2175.84 161.509M693.798 456.246C656.05 457.116 618.246 457.134 580.416 456.47M693.798 456.246C823.452 453.258 952.431 440.216 1079.44 410.229C1229.08 374.899 1374.87 324.719 1523.7 286.169C1738.14 230.619 1956.46 191.639 2175.82 161.509M580.416 456.47C556.448 456.049 532.47 455.354 508.49 454.429M580.416 456.47C556.441 456.049 532.457 455.355 508.47 454.429C307.772 446.681 107.529 426.685 -92 402.455" stroke="url(#paint1_linear_85_2686)" stroke-opacity="0.35" stroke-width="2" stroke-miterlimit="10"/>
</g>
<defs>
<linearGradient id="paint0_linear_85_2686" x1="-2626.99" y1="671.198" x2="4407.75" y2="-239.901" gradientUnits="userSpaceOnUse">
<stop stop-color="#F37C21"/>
<stop offset="1" stop-color="#FDA600"/>
</linearGradient>
<linearGradient id="paint1_linear_85_2686" x1="-2728.99" y1="525.007" x2="4305.75" y2="-386.092" gradientUnits="userSpaceOnUse">
<stop stop-color="#F37C21"/>
<stop offset="1" stop-color="#FDA600"/>
</linearGradient>
<clipPath id="clip0_85_2686">
<rect width="2014" height="571" fill="white"/>
</clipPath>
</defs>
</svg>
