<svg width="7000" height="540" viewBox="0 0 7000 540" fill="none" xmlns="http://www.w3.org/2000/svg">
<g clip-path="url(#clip0_85_2553)">
<mask id="mask0_85_2553" style="mask-type:luminance" maskUnits="userSpaceOnUse" x="0" y="0" width="7000" height="540">
<path d="M7000 0H0V540H7000V0Z" fill="white"/>
</mask>
<g mask="url(#mask0_85_2553)">
<g opacity="0.2">
<path d="M7046.74 -3.36035C7046.74 -3.36035 6759.69 8.97965 6616.24 16.5997C6040.78 47.1597 5463.03 88.9896 4894.23 184.51C4675.34 221.27 4458.06 267.69 4244.94 329.97C4097.18 373.16 3952.25 427.26 3802.56 463.63C3613.04 509.67 3418.41 514.62 3224.4 504.83C2945.4 490.75 2667.55 452.82 2391.3 412.72C2033.47 360.77 1676.79 300.97 1320.48 239.55C865.16 161.04 -44.1 -3.86035 -44.1 -3.86035C-44.1 -3.86035 865.16 161.04 1320.48 239.54C1676.79 300.97 2033.47 360.76 2391.3 412.71C2667.55 452.82 2945.4 490.74 3224.4 504.82C3418.41 514.61 3613.04 509.66 3802.56 463.62C3952.25 427.25 4097.18 373.15 4244.94 329.96C4458.06 267.67 4675.34 221.25 4894.23 184.5C5463.02 88.9797 6040.78 47.1497 6616.24 16.5897C6759.69 8.96965 7046.74 -3.37035 7046.74 -3.37035V-3.36035Z" stroke="url(#paint0_linear_85_2553)" stroke-width="2" stroke-miterlimit="10"/>
<path d="M7046.74 38.1797C7046.74 38.1797 6756.47 44.3397 6611.37 48.7597C6027.07 66.5497 5440.32 94.2097 4860.74 173.84C4641.38 203.98 4423.07 242.96 4208.62 298.5C4059.79 337.05 3914 387.24 3764.36 422.56C3576.94 466.81 3385.23 474.16 3193.39 466.76C2919.08 456.18 2645.62 422.7 2373.67 386.81C2020.4 340.2 1668.19 285.64 1316.36 229.29C862.39 156.58 -44.1 2.40967 -44.1 2.40967C-44.1 2.40967 862.38 156.58 1316.34 229.29C1668.17 285.64 2020.38 340.2 2373.65 386.81C2645.6 422.7 2919.06 456.17 3193.37 466.76C3385.21 474.16 3576.92 466.81 3764.34 422.56C3913.98 387.23 4059.77 337.05 4208.6 298.5C4423.04 242.95 4641.36 203.97 4860.72 173.84C5440.3 94.2197 6027.05 66.5497 6611.35 48.7597C6756.45 44.3397 7046.72 38.1797 7046.72 38.1797H7046.74Z" stroke="url(#paint1_linear_85_2553)" stroke-width="2" stroke-miterlimit="10"/>
<path d="M7046.74 79.7096C7046.74 79.7096 6750.12 79.9797 6601.82 81.3697C6010.1 86.9297 5415.89 101.14 4827.22 165.44C4605.02 189.71 4383.41 222.31 4165.51 272.65C4017.97 306.73 3873.55 352.74 3726.15 387.14C3541.46 430.24 3353.18 440.8 3163.99 436.38C2893.54 430.06 2623.58 401.3 2355.08 369.86C2005.1 328.88 1656.08 279.68 1307.47 228.47C856.45 162.21 -44.1 19.9497 -44.1 19.9497C-44.1 19.9497 856.45 162.21 1307.46 228.47C1656.07 279.69 2005.09 328.88 2355.07 369.86C2623.57 401.3 2893.53 430.05 3163.98 436.38C3353.18 440.8 3541.45 430.24 3726.14 387.14C3873.54 352.74 4017.96 306.74 4165.5 272.65C4383.4 222.31 4605.02 189.71 4827.21 165.44C5415.87 101.15 6010.08 86.9297 6601.81 81.3697C6750.11 79.9797 7046.73 79.7096 7046.73 79.7096H7046.74Z" stroke="url(#paint2_linear_85_2553)" stroke-width="2" stroke-miterlimit="10"/>
<path d="M7046.74 121.25C7046.74 121.25 6748.27 115.8 6599.01 114.23C5999.65 107.91 5397.84 109.14 4800.1 158.48C4574.75 177.08 4349.52 203.46 4127.85 248.85C3979.75 279.17 3835 322.09 3687.94 356.6C3506.03 399.29 3321.18 413.62 3134.6 412.6C2869.86 411.16 2605.23 387.78 2342 361.35C1993.46 326.36 1645.8 282.59 1298.57 236.53C850.51 177.1 -44.1 47.2798 -44.1 47.2798C-44.1 47.2798 850.51 177.11 1298.57 236.55C1645.8 282.61 1993.46 326.38 2342 361.37C2605.23 387.8 2869.86 411.17 3134.6 412.62C3321.18 413.64 3506.03 399.31 3687.94 356.62C3835 322.11 3979.75 279.19 4127.85 248.87C4349.52 203.48 4574.75 177.11 4800.1 158.5C5397.83 109.16 5999.65 107.93 6599.01 114.25C6748.26 115.82 7046.74 121.27 7046.74 121.27V121.25Z" stroke="url(#paint3_linear_85_2553)" stroke-width="2" stroke-miterlimit="10"/>
<path d="M7046.74 162.79C7046.74 162.79 6743.28 151.78 6591.52 147.35C5984.27 129.62 5374.57 118.33 4767.75 153.83C4540.96 167.1 4313.9 187.5 4090.19 228.01C3941.55 254.93 3796.48 295.13 3649.73 330.24C3471.84 372.8 3291.6 391.5 3108.83 394.41C2846.79 398.59 2584.39 380.48 2323.41 358.93C1978.16 330.43 1633.7 292.61 1289.67 252.18C844.58 199.89 -44.1 82.9297 -44.1 82.9297C-44.1 82.9297 844.57 199.89 1289.67 252.19C1633.7 292.62 1978.16 330.43 2323.41 358.94C2584.4 380.49 2846.79 398.59 3108.83 394.42C3291.6 391.51 3471.83 372.81 3649.73 330.25C3796.48 295.14 3941.55 254.93 4090.19 228.02C4313.9 187.51 4540.96 167.11 4767.75 153.84C5374.56 118.34 5984.27 129.63 6591.52 147.36C6743.28 151.79 7046.74 162.8 7046.74 162.8V162.79Z" stroke="url(#paint4_linear_85_2553)" stroke-width="2" stroke-miterlimit="10"/>
<path d="M7046.74 204.33C7046.74 204.33 6739.68 187.93 6586.1 180.72C5968.85 151.76 5349.12 128.2 4731.27 150.72C4503.95 159.01 4276.02 173.84 4051.21 209.8C3902.5 233.59 3757.56 271.27 3611.54 307.3C3436.48 350.5 3259.65 373.86 3079.46 380.84C2821.36 390.84 2562.41 378.38 2304.84 362.05C1962.91 340.36 1621.63 308.69 1280.79 274.08C838.65 229.19 -44.1 125.45 -44.1 125.45C-44.1 125.45 838.65 229.19 1280.77 274.09C1621.61 308.7 1962.89 340.37 2304.82 362.06C2562.4 378.4 2821.34 390.85 3079.44 380.85C3259.63 373.87 3436.46 350.5 3611.52 307.31C3757.54 271.28 3902.48 233.59 4051.19 209.81C4276 173.85 4503.93 159.01 4731.25 150.73C5349.1 128.21 5968.83 151.77 6586.08 180.73C6739.66 187.94 7046.72 204.34 7046.72 204.34L7046.74 204.33Z" stroke="url(#paint5_linear_85_2553)" stroke-width="2" stroke-miterlimit="10"/>
<path d="M7046.74 245.87C7046.74 245.87 6734.68 224.12 6578.59 214.17C5955.07 174.43 5329.19 139.21 4704.17 148.42C4473.62 151.82 4242.09 161.26 4013.52 193.29C3864.3 214.2 3719.06 249.67 3573.32 287.08C3402.25 330.99 3230.02 359.34 3053.65 370.73C2798.35 387.22 2541.62 380.58 2286.24 369.55C1947.65 354.93 1609.54 329.58 1271.88 300.91C832.74 263.61 -44.1 173.37 -44.1 173.37C-44.1 173.37 832.73 263.62 1271.87 300.9C1609.53 329.57 1947.64 354.92 2286.23 369.54C2541.6 380.57 2798.34 387.2 3053.64 370.72C3230.01 359.33 3402.24 330.98 3573.31 287.07C3719.05 249.66 3864.29 214.2 4013.51 193.28C4242.08 161.25 4473.61 151.8 4704.16 148.41C5329.18 139.2 5955.06 174.42 6578.58 214.16C6734.67 224.11 7046.73 245.86 7046.73 245.86L7046.74 245.87Z" stroke="url(#paint6_linear_85_2553)" stroke-width="2" stroke-miterlimit="10"/>
<path d="M7046.74 287.41C7046.74 287.41 6731.08 260.47 6573.17 247.86C5941.29 197.39 5307.13 150.53 4672.96 147.1C4440.1 145.84 4205.93 150.1 3974.52 178.34C3825.26 196.56 3680.13 229.87 3535.11 268.81C3366.81 314 3198.01 347.54 3024.25 363.41C2772.99 386.36 2519.66 385.76 2267.65 380.23C1932.42 372.86 1597.47 353.94 1262.97 331.31C826.84 301.78 -44.1 225.21 -44.1 225.21C-44.1 225.21 826.83 301.78 1262.96 331.3C1597.47 353.94 1932.42 372.86 2267.64 380.22C2519.66 385.76 2772.98 386.35 3024.24 363.4C3198 347.53 3366.8 313.99 3535.1 268.8C3680.12 229.86 3825.25 196.55 3974.51 178.33C4205.91 150.09 4440.09 145.83 4672.95 147.09C5307.12 150.52 5941.28 197.38 6573.16 247.85C6731.06 260.46 7046.73 287.4 7046.73 287.4L7046.74 287.41Z" stroke="url(#paint7_linear_85_2553)" stroke-width="2" stroke-miterlimit="10"/>
<path d="M7046.74 328.95C7046.74 328.95 6724.3 296.58 6563 281.2C5924.3 220.31 5283.43 162.18 4641.76 146.33C4405.49 140.49 4167.55 139.65 3932.24 164.59C3784.11 180.29 3640.13 211.42 3496.92 251.76C3331.33 298.41 3166 337.3 2994.88 357.78C2747.7 387.36 2497.77 392.9 2249.08 392.91C1917.25 392.93 1585.44 380.51 1254.07 363.95C820.95 342.31 -44.1 279.51 -44.1 279.51C-44.1 279.51 820.95 342.3 1254.05 363.94C1585.42 380.5 1917.23 392.92 2249.06 392.9C2497.76 392.89 2747.69 387.35 2994.86 357.77C3165.98 337.29 3331.31 298.4 3496.9 251.75C3640.11 211.41 3784.09 180.28 3932.22 164.58C4167.53 139.64 4405.48 140.48 4641.74 146.32C5283.41 162.17 5924.28 220.3 6562.98 281.19C6724.28 296.57 7046.72 328.94 7046.72 328.94L7046.74 328.95Z" stroke="url(#paint8_linear_85_2553)" stroke-width="2" stroke-miterlimit="10"/>
<path d="M7046.74 370.48C7046.74 370.48 6720.69 332.98 6557.58 314.97M6557.58 314.97C5910.44 243.52 5261.26 174 4610.55 145.77M6557.58 314.97C5910.44 243.52 5261.26 174.01 4610.55 145.77M4610.55 145.77C4371.98 135.42 4131.42 129.5 3893.25 150.77M4610.55 145.77C4371.98 135.41 4131.42 129.5 3893.25 150.77M3893.25 150.77C3745.14 164 3601.18 193.08 3458.71 235.21M3458.71 235.21C3296.27 283.25 3134.93 327.47 2967.03 352.62M3458.71 235.21C3296.26 283.25 3134.93 327.47 2967.03 352.62M2967.03 352.62C2723.18 389.14 2475.78 400.88 2229.53 406.45M2967.03 352.62C2723.18 389.15 2475.78 400.89 2229.53 406.45M2229.53 406.45C1901.9 413.85 1574.01 408 1246.52 397.57M2229.53 406.45C1901.91 413.85 1574.01 408 1246.52 397.57M1246.52 397.57C816.01 383.86 -44.09 334.82 -44.09 334.82" stroke="url(#paint9_linear_85_2553)" stroke-width="2" stroke-miterlimit="10"/>
<path d="M7046.74 412.02C7046.74 412.02 6717.08 369.4 6552.16 348.77C5896.54 266.74 5239.05 185.83 4579.34 145.14C4192.57 121.28 3795.04 102.35 3420.5 218.43C3259.97 268.19 3101.54 317.91 2935.7 347.73M2935.7 347.73C2696.35 390.76 2452.68 408.62 2210.02 419.7M2935.7 347.73C2696.35 390.77 2452.69 408.63 2210.02 419.7M2210.02 419.7C1886.63 434.45 1562.63 435.1 1238.99 430.73M2210.02 419.7C1886.63 434.45 1562.63 435.09 1238.99 430.73M1238.99 430.73C811.1 424.96 -44.08 389.64 -44.08 389.64" stroke="url(#paint10_linear_85_2553)" stroke-width="2" stroke-miterlimit="10"/>
<path d="M6546.75 382.53C6713.47 405.81 7046.74 453.56 7046.74 453.56C7046.74 453.56 6713.47 405.8 6546.75 382.53ZM6546.75 382.53C5882.62 289.82 5216.8 197.47 4548.14 144.11M4548.14 144.11C4304.95 124.7 4059.25 108.55 3815.28 122.17M4548.14 144.11C4304.95 124.71 4059.25 108.56 3815.28 122.17M3815.28 122.17C3667.38 130.42 3523.28 155.05 3382.29 200.68M3815.28 122.17C3667.37 130.42 3523.27 155.05 3382.29 200.68M3382.29 200.68C3224.73 251.68 3070.33 306.58 2907.85 340.96M3382.29 200.68C3224.72 251.69 3070.33 306.58 2907.85 340.96M2907.85 340.96C2673.71 390.5 2434.44 414.489 2195.98 431.079M2907.85 340.96C2673.72 390.5 2434.44 414.489 2195.98 431.079M2195.98 431.079C1872.95 453.559 1548.89 460.59 1225.15 462.13C802 464.14 -44.09 442.53 -44.09 442.53" stroke="url(#paint11_linear_85_2553)" stroke-width="2" stroke-miterlimit="10"/>
<path d="M7046.74 495.1C7046.74 495.1 6709.86 442.16 6541.34 416.22M6541.34 416.22C5868.65 312.69 5194.5 208.72 4516.93 142.4M6541.34 416.22C5868.65 312.7 5194.49 208.73 4516.93 142.4M4516.93 142.4C4271.42 118.37 4023.2 96.9396 3776.29 106.38M4516.93 142.4C4271.42 118.37 4023.2 96.9496 3776.29 106.38M3776.29 106.38C3628.61 112.02 3484.34 134.07 3344.09 181.24M3776.29 106.38C3628.62 112.02 3484.34 134.07 3344.09 181.24M3344.09 181.24C3188.27 233.65 3036.84 293.83 2876.6 332.69C2646.98 388.37 2411.43 418.23 2176.46 440.07C1859.82 469.5 1541.75 482.89 1223.91 490.36M1223.91 490.36C801.34 500.3 -44.09 492.02 -44.09 492.02C-44.09 492.02 801.33 500.3 1223.91 490.36Z" stroke="url(#paint12_linear_85_2553)" stroke-width="2" stroke-miterlimit="10"/>
<path d="M6535.92 449.79C6706.25 478.43 7046.74 536.64 7046.74 536.64C7046.74 536.64 6706.24 478.43 6535.92 449.79ZM6535.92 449.79C5854.63 335.22 5172.13 219.47 4485.72 139.68M6535.92 449.79C5854.63 335.23 5172.13 219.47 4485.72 139.68M4485.72 139.68C4237.89 110.87 3987.18 84.0195 3737.3 88.9095M4485.72 139.68C4237.89 110.88 3987.18 84.0195 3737.3 88.9095M3737.3 88.9095C3589.97 91.7895 3445.43 110.92 3305.88 159.36M3305.88 159.36C3152.83 212.49 3005.44 277.339 2848.76 320.359M3305.88 159.36C3152.83 212.48 3005.44 277.339 2848.76 320.359M2848.76 320.359C2622.61 382.459 2389.6 418.17 2156.95 445.22M2848.76 320.359C2622.61 382.449 2389.6 418.17 2156.95 445.22M2156.95 445.22C1842.55 481.78 1526.23 501.29 1210.06 514.43M2156.95 445.22C1842.54 481.77 1526.22 501.28 1210.06 514.43M1210.06 514.43C792.28 531.8 -44.09 536.64 -44.09 536.64C-44.09 536.64 792.28 531.81 1210.06 514.43Z" stroke="url(#paint13_linear_85_2553)" stroke-width="2" stroke-miterlimit="10"/>
</g>
</g>
</g>
<defs>
<linearGradient id="paint0_linear_85_2553" x1="-44.0998" y1="509.816" x2="7018.13" y2="-289.695" gradientUnits="userSpaceOnUse">
<stop stop-color="#F37C21"/>
<stop offset="1" stop-color="#FDA600"/>
</linearGradient>
<linearGradient id="paint1_linear_85_2553" x1="-44.0998" y1="469.994" x2="6999.7" y2="-406.035" gradientUnits="userSpaceOnUse">
<stop stop-color="#F37C21"/>
<stop offset="1" stop-color="#FDA600"/>
</linearGradient>
<linearGradient id="paint2_linear_85_2553" x1="-44.0998" y1="437.958" x2="6972.84" y2="-538.234" gradientUnits="userSpaceOnUse">
<stop stop-color="#F37C21"/>
<stop offset="1" stop-color="#FDA600"/>
</linearGradient>
<linearGradient id="paint3_linear_85_2553" x1="-44.0998" y1="413.239" x2="6932.48" y2="-695.378" gradientUnits="userSpaceOnUse">
<stop stop-color="#F37C21"/>
<stop offset="1" stop-color="#FDA600"/>
</linearGradient>
<linearGradient id="paint4_linear_85_2553" x1="-44.0998" y1="395.508" x2="6869.36" y2="-890.693" gradientUnits="userSpaceOnUse">
<stop stop-color="#F37C21"/>
<stop offset="1" stop-color="#FDA600"/>
</linearGradient>
<linearGradient id="paint5_linear_85_2553" x1="-44.0998" y1="384.834" x2="6766.33" y2="-1142.04" gradientUnits="userSpaceOnUse">
<stop stop-color="#F37C21"/>
<stop offset="1" stop-color="#FDA600"/>
</linearGradient>
<linearGradient id="paint6_linear_85_2553" x1="-44.0998" y1="381.026" x2="6692.9" y2="-1292.55" gradientUnits="userSpaceOnUse">
<stop stop-color="#F37C21"/>
<stop offset="1" stop-color="#FDA600"/>
</linearGradient>
<linearGradient id="paint7_linear_85_2553" x1="-44.0998" y1="383.797" x2="6702.14" y2="-1272.22" gradientUnits="userSpaceOnUse">
<stop stop-color="#F37C21"/>
<stop offset="1" stop-color="#FDA600"/>
</linearGradient>
<linearGradient id="paint8_linear_85_2553" x1="-44.0998" y1="393.299" x2="6742.56" y2="-1182.93" gradientUnits="userSpaceOnUse">
<stop stop-color="#F37C21"/>
<stop offset="1" stop-color="#FDA600"/>
</linearGradient>
<linearGradient id="paint9_linear_85_2553" x1="-44.0898" y1="410.196" x2="6799.89" y2="-1043.46" gradientUnits="userSpaceOnUse">
<stop stop-color="#F37C21"/>
<stop offset="1" stop-color="#FDA600"/>
</linearGradient>
<linearGradient id="paint10_linear_85_2553" x1="-44.0798" y1="433.567" x2="6859.92" y2="-876.863" gradientUnits="userSpaceOnUse">
<stop stop-color="#F37C21"/>
<stop offset="1" stop-color="#FDA600"/>
</linearGradient>
<linearGradient id="paint11_linear_85_2553" x1="-44.0898" y1="462.799" x2="6911.79" y2="-707.366" gradientUnits="userSpaceOnUse">
<stop stop-color="#F37C21"/>
<stop offset="1" stop-color="#FDA600"/>
</linearGradient>
<linearGradient id="paint12_linear_85_2553" x1="-44.0898" y1="495.862" x2="6954.44" y2="-542.997" gradientUnits="userSpaceOnUse">
<stop stop-color="#F37C21"/>
<stop offset="1" stop-color="#FDA600"/>
</linearGradient>
<linearGradient id="paint13_linear_85_2553" x1="-44.0898" y1="537.337" x2="6990.65" y2="-373.762" gradientUnits="userSpaceOnUse">
<stop stop-color="#F37C21"/>
<stop offset="1" stop-color="#FDA600"/>
</linearGradient>
<clipPath id="clip0_85_2553">
<rect width="7000" height="540" fill="white"/>
</clipPath>
</defs>
</svg>
