<svg width="3236" height="829" viewBox="0 0 3236 829" fill="none" xmlns="http://www.w3.org/2000/svg">
<g clip-path="url(#clip0_85_2686)">
<path d="M10 548.646C-63.1835 539.758 -136.271 530.301 -209.25 520.67C-562.52 474.06 -914.73 419.5 -1266.56 363.15C-1720.52 290.44 -2627 136.27 -2627 136.27C-2627 136.27 -1720.51 290.44 -1266.54 363.15" stroke="url(#paint0_linear_85_2686)" stroke-width="2" stroke-miterlimit="10"/>
<path d="M3519 226.892C3175.54 284.563 2834.61 357.39 2500.2 455.099C2268.35 522.858 2040.95 607.733 1806.07 664.793C1508.69 737.023 1203.3 744.789 898.882 729.43C567.568 712.712 237.288 674.563 -91.6525 629.727M898.882 729.414C1203.3 744.773 1508.69 737.007 1806.07 664.777C2040.95 607.718 2268.35 522.842 2500.2 455.083C2834.61 357.359 3175.54 284.532 3519 226.876M3413.86 196.974C3065.2 235.05 2717.48 286.195 2375.57 365.172C2144.07 418.638 1917.46 490.822 1686.17 544.791C1396.38 612.408 1100.95 628.976 804.093 622.041C504.835 615.049 205.96 590.549 -92 559.414M804.078 622.041C1100.95 628.976 1396.36 612.408 1686.16 544.791C1917.44 490.822 2144.05 418.654 2375.56 365.172C2717.46 286.195 3065.2 235.05 3413.84 196.974M3371.3 186.055C3017.71 215.236 2664.3 256.622 2316.48 327.833C2084.1 375.401 1856.97 442.736 1626.22 496.877C1340.79 563.852 1050.74 586.334 757.978 584.734M3371.3 186.086C3017.71 215.283 2664.3 256.653 2316.48 327.864C2084.1 375.432 1856.97 442.767 1626.22 496.909C1340.79 563.884 1050.74 586.365 757.978 584.765C474.357 583.212 190.816 565.628 -92 541.43M3320.54 178.76C2964.69 199.578 2608.41 231.583 2257.39 295.138C2024.16 337.371 1796.53 400.44 1566.26 455.522C1287.14 522.293 1004.33 551.631 717.542 556.196C447.675 560.5 177.564 549.74 -92 532.276M717.542 556.212C1004.33 551.646 1287.12 522.309 1566.26 455.538C1796.53 400.455 2024.16 337.371 2257.39 295.153C2608.41 231.599 2964.69 199.594 3320.54 178.775M3263.3 173.88C2906.61 186.886 2548.97 210.152 2196.22 266.569C1962.88 303.892 1735.46 363.007 1506.34 419.533C1231.66 487.307 954.193 523.956 671.458 534.907C417.209 544.756 162.434 540.717 -92 530.007M671.426 534.922C954.161 523.972 1231.62 487.307 1506.31 419.548C1735.43 363.022 1962.85 303.892 2196.19 266.584C2548.94 210.168 2906.58 186.886 3263.27 173.896M3220.78 170.272C2859.02 175.606 2495.73 190.416 2137.08 240.667C1902.94 273.472 1675.05 329.119 1446.37 387.81C1177.95 456.699 907.7 501.176 630.959 519.046C390.467 534.577 149.166 537.029 -92 532.765M630.944 519.03C907.685 501.16 1177.93 456.683 1446.35 387.795C1675.03 329.104 1902.93 273.472 2137.07 240.651C2495.72 190.4 2859.01 175.575 3220.76 170.256M3171.81 168.201C2806.43 166.224 2438.99 172.908 2075.89 217.212C1841.69 245.797 1613.96 298.056 1386.42 359.147C1122.34 430.044 857.474 482.664 584.828 507.561C359.947 528.099 134.008 536.616 -92 538.533M584.813 507.546C857.458 482.648 1122.32 430.028 1386.4 359.131C1613.95 298.04 1841.67 245.781 2075.87 217.197C2438.96 172.892 2806.41 166.209 3171.79 168.185M3122.85 166.993C2752.12 157.831 2378.77 156.513 2009.55 195.64C1777.12 220.272 1551.2 269.11 1326.49 332.398C1066.67 405.585 807.247 466.598 538.744 498.729C329.425 523.774 118.849 537.834 -92 545.474M538.713 498.713C807.216 466.583 1066.63 405.57 1326.46 332.382C1551.17 269.095 1777.09 220.256 2009.52 195.625C2378.74 156.497 2752.11 157.815 3122.82 166.977M1948.37 173.959C2322.08 140.589 2699.54 149.877 3073.88 166.114C2699.54 149.861 2322.08 140.589 1948.37 173.959ZM1948.37 173.959C1715.97 194.715 1490.08 240.337 1266.54 306.433M1266.54 306.433C1011.65 381.802 758.495 451.177 495.045 490.633M1266.54 306.433C1011.64 381.802 758.495 451.177 495.045 490.633M495.045 490.633C300.48 519.776 104.475 538.862 -92 551.73M3024.91 165.126C2418.03 127.693 1794.27 97.9945 1206.58 280.108C954.695 358.174 706.103 436.178 445.885 482.962C267.817 514.97 88.2245 538.101 -92 555.43M1826.03 129.089C2208.84 107.721 2594.36 133.059 2975.95 163.51C2594.36 133.074 2208.84 107.737 1826.03 129.089ZM1826.03 129.089C1593.96 142.032 1367.85 180.674 1146.63 252.261M1826.03 129.089C1593.94 142.032 1367.84 180.674 1146.63 252.261M1146.63 252.261C899.4 332.273 657.132 418.403 402.186 472.341M1146.63 252.261C899.384 332.288 657.132 418.403 402.186 472.341M402.186 472.341C238.777 506.91 73.7743 533.549 -92 554.764M1764.85 104.317C2152.27 89.5072 2541.75 123.128 2926.98 160.827C2541.75 123.128 2152.27 89.5228 1764.85 104.317ZM1764.85 104.317C1533.13 113.165 1306.75 147.759 1086.69 221.762M1764.85 104.317C1533.14 113.165 1306.75 147.759 1086.69 221.762M1086.69 221.762C842.191 303.986 604.583 398.4 353.152 459.366C206.087 495.022 57.4711 523.929 -92 547.987M1703.67 76.9091C2095.75 69.2373 2489.14 111.361 2878.01 156.56C2489.14 111.377 2095.75 69.2373 1703.67 76.9091ZM1703.67 76.9091C1472.5 81.4274 1245.7 111.44 1026.73 187.435M1026.73 187.435C786.582 270.789 555.314 372.53 309.468 440.022M1026.73 187.435C786.582 270.773 555.314 372.53 309.468 440.022M309.468 440.022C176.95 476.406 42.9305 507.015 -92 533.299M1140.99 672.554C1344.44 667.867 1546.83 647.407 1746.13 600.36C1980.93 544.947 2209.69 466.206 2443.21 405.727C2779.71 318.592 3122.26 257.438 3466.45 210.152M1140.99 672.554C1081.76 673.918 1022.44 673.946 963.083 672.904M1140.99 672.554C1344.43 667.865 1546.81 647.405 1746.1 600.36C1980.9 544.932 2209.66 466.206 2443.18 405.727C2779.66 318.576 3122.22 257.422 3466.42 210.152M963.083 672.904C925.475 672.244 887.851 671.154 850.224 669.703M963.083 672.904C925.465 672.244 887.831 671.155 850.193 669.703C535.28 657.547 221.08 626.177 -92 588.162" stroke="url(#paint1_linear_85_2686)" stroke-opacity="0.35" stroke-width="2" stroke-miterlimit="10"/>
</g>
<defs>
<linearGradient id="paint0_linear_85_2686" x1="-2626.99" y1="671.198" x2="4407.75" y2="-239.901" gradientUnits="userSpaceOnUse">
<stop stop-color="#F37C21"/>
<stop offset="1" stop-color="#FDA600"/>
</linearGradient>
<linearGradient id="paint1_linear_85_2686" x1="-4229.68" y1="780.43" x2="6808.42" y2="-649.372" gradientUnits="userSpaceOnUse">
<stop stop-color="#F37C21"/>
<stop offset="1" stop-color="#FDA600"/>
</linearGradient>
<clipPath id="clip0_85_2686">
<rect width="3236" height="829" fill="white"/>
</clipPath>
</defs>
</svg>
