<svg width="222" height="34" viewBox="0 0 222 34" fill="none" xmlns="http://www.w3.org/2000/svg">
<g clip-path="url(#clip0_72_2542)">
<g clip-path="url(#clip1_72_2542)">
<path d="M6.85051 33.3729C6.20495 33.3729 5.5714 33.1102 5.11165 32.6176C4.42189 31.879 4.27455 30.7849 4.74412 29.89L18.9505 2.81219C19.2706 2.20183 19.8397 1.76063 20.5107 1.60238C21.1813 1.44413 21.8877 1.58491 22.4468 1.98791L39.2871 14.1259L69.4516 0.854226C70.3738 0.448499 71.4514 0.667873 72.1414 1.40183C72.8314 2.1358 72.9847 3.22501 72.5227 4.1205L58.8203 30.702C58.5032 31.3172 57.9338 31.7636 57.2607 31.9249C56.5875 32.0862 55.8776 31.9462 55.3161 31.5416L38.7124 19.5744L7.8074 33.1716C7.49908 33.3072 7.17329 33.3729 6.85051 33.3729ZM21.8889 7.44842L12.1132 26.0813L34.2361 16.348L21.8889 7.44842ZM43.7634 17.352L55.8577 26.0693L65.217 7.91335L43.7634 17.352Z" fill="url(#paint0_linear_72_2542)"/>
<path d="M69.7635 32.6747L87.0187 2.42631H93.4941L100.179 32.6747H93.3274L92.0321 26.3241H80.2921L76.7407 32.6747H69.7635ZM85.1801 17.5087L83.1747 21.1017H90.9454L90.1934 17.4669C89.7761 15.4337 89.3581 13.1775 88.9401 10.6987H88.8567C88.0767 12.2305 86.8514 14.5006 85.1801 17.5087ZM102.994 32.6747L108.634 0.755127H114.985L109.344 32.6747H102.994ZM137.558 14.0828L134.299 32.6747H128.074L128.325 31.2959L128.241 31.2541C126.821 32.5075 125.135 33.1342 123.185 33.1342C120.874 33.1342 118.966 32.3125 117.462 30.6692C115.985 29.0259 115.247 26.8951 115.247 24.277C115.247 22.5779 115.568 20.9207 116.209 19.3052C116.877 17.6619 117.824 16.2414 119.049 15.0437C121.361 12.7876 124.327 11.6596 127.949 11.6596C130.957 11.6596 134.16 12.4673 137.558 14.0828ZM129.035 26.4913L130.581 17.6341C129.578 17.1605 128.505 16.9238 127.363 16.9238C125.693 16.9238 124.314 17.5644 123.227 18.8457C122.169 20.1269 121.64 21.7006 121.64 23.5667C121.64 24.9315 121.974 26.0178 122.643 26.8255C123.339 27.6054 124.272 27.9953 125.442 27.9953C126.695 27.9953 127.893 27.494 129.035 26.4913ZM142.433 26.9091C142.433 26.2963 142.53 25.405 142.725 24.2352L143.937 17.3833H140.594L141.513 12.1191H144.856L145.859 6.43714L152.293 6.06112L151.206 12.1191H156.596L155.677 17.3833H150.287L149.117 24.1099C149.006 24.7226 148.95 25.2101 148.95 25.5721C148.95 27.0483 149.716 27.7865 151.248 27.7865C152.167 27.7865 153.073 27.5636 153.964 27.118L153.003 32.5911C152 32.9532 150.858 33.1342 149.577 33.1342C147.571 33.1342 145.873 32.6189 144.48 31.5884C143.115 30.5578 142.433 28.9981 142.433 26.9091ZM161.153 5.76867C161.153 4.6824 161.529 3.77718 162.281 3.053C163.033 2.32883 163.953 1.96673 165.039 1.96673C166.014 1.96673 166.835 2.3149 167.504 3.01122C168.173 3.67969 168.507 4.48743 168.507 5.43443C168.507 6.52069 168.131 7.42593 167.379 8.15013C166.627 8.87426 165.707 9.23633 164.621 9.23633C163.646 9.23633 162.825 8.90213 162.156 8.23366C161.487 7.53733 161.153 6.71566 161.153 5.76867ZM156.85 32.6747L160.485 12.1191H166.835L163.201 32.6747H156.85ZM169.021 23.6085C169.021 20.2661 170.163 17.4251 172.447 15.0855C174.675 12.8015 177.517 11.6596 180.97 11.6596C183.923 11.6596 186.36 12.523 188.281 14.2499C190.231 15.9768 191.206 18.2886 191.206 21.1853C191.206 24.5277 190.064 27.3687 187.78 29.7083C185.552 31.9923 182.711 33.1342 179.257 33.1342C176.305 33.1342 173.854 32.2708 171.904 30.5439C169.982 28.817 169.021 26.5052 169.021 23.6085ZM175.372 23.1907C175.372 24.5277 175.734 25.6139 176.458 26.4495C177.21 27.2851 178.255 27.7029 179.591 27.7029C181.123 27.7029 182.349 27.1737 183.268 26.1153C184.327 24.8897 184.856 23.3857 184.856 21.6031C184.856 20.2661 184.48 19.1799 183.728 18.3443C183.003 17.5087 181.973 17.0909 180.636 17.0909C179.104 17.0909 177.879 17.6201 176.959 18.6785C175.901 19.9041 175.372 21.4081 175.372 23.1907ZM193.448 32.6747L197.083 12.1191H203.308L202.973 13.9992L203.057 14.041C204.979 12.4534 207.082 11.6596 209.366 11.6596C211.315 11.6596 212.861 12.2445 214.003 13.4143C215.145 14.5841 215.717 16.13 215.717 18.0518C215.717 18.7203 215.633 19.5559 215.466 20.5586L213.335 32.6747H206.985L209.032 21.0599C209.143 20.4472 209.199 19.9459 209.199 19.5559C209.199 18.8317 208.99 18.2468 208.572 17.8011C208.154 17.3555 207.514 17.1327 206.65 17.1327C205.118 17.1327 203.642 17.7037 202.221 18.8457L199.799 32.6747H193.448Z" fill="white"/>
</g>
</g>
<defs>
<linearGradient id="paint0_linear_72_2542" x1="4.4718" y1="33.4238" x2="37.873" y2="-25.8671" gradientUnits="userSpaceOnUse">
<stop stop-color="#F37C21"/>
<stop offset="1" stop-color="#FDA600"/>
</linearGradient>
<clipPath id="clip0_72_2542">
<rect width="222" height="34" fill="white"/>
</clipPath>
<clipPath id="clip1_72_2542">
<rect width="213.333" height="34" fill="white" transform="translate(4.33337)"/>
</clipPath>
</defs>
</svg>
