<svg width="175" height="31" viewBox="0 0 175 31" fill="none" xmlns="http://www.w3.org/2000/svg">
<g clip-path="url(#clip0_72_2541)">
<g clip-path="url(#clip1_72_2541)">
<path d="M2.31723 29.0947C1.78811 29.0947 1.26882 28.8793 0.891997 28.4756C0.326644 27.8703 0.205881 26.9735 0.590757 26.2399L12.2348 4.04606C12.4972 3.54578 12.9637 3.18416 13.5136 3.05445C14.0633 2.92475 14.6423 3.04014 15.1005 3.37045L28.9033 13.3191L53.6271 2.44124C54.3832 2.1087 55.2664 2.2885 55.832 2.89008C56.3977 3.49166 56.5227 4.38442 56.1445 5.11839L44.9135 26.9055C44.6537 27.4098 44.1868 27.7756 43.6351 27.9078C43.0833 28.04 42.5014 27.9253 42.0415 27.5936L28.4324 17.7849L3.10152 28.9296C2.84881 29.0408 2.58179 29.0947 2.31723 29.0947ZM14.6432 7.84609L6.63073 23.1182L24.7634 15.1404L14.6432 7.84609ZM32.5723 15.9634L42.4852 23.1084L50.1565 8.22718L32.5723 15.9634Z" fill="url(#paint0_linear_72_2541)"/>
<path d="M53.8833 28.2838L68.0262 3.49116H73.3339L78.8131 28.2838H73.1972L72.1356 23.0787H62.5129L59.6022 28.2838H53.8833ZM66.5193 15.8532L64.8758 18.7982H71.2451L70.6287 15.819C70.2865 14.1524 69.9438 12.3032 69.6015 10.2715H69.533C68.8938 11.527 67.8891 13.3877 66.5193 15.8532ZM81.1202 28.2838L85.743 2.1214H90.9481L86.3253 28.2838H81.1202ZM109.45 13.0452L106.779 28.2838H101.677L101.882 27.1537L101.814 27.1195C100.649 28.1468 99.2683 28.6604 97.6701 28.6604C95.7753 28.6604 94.2115 27.987 92.9788 26.64C91.7689 25.2931 91.1637 23.5467 91.1637 21.4007C91.1637 20.0081 91.4262 18.6498 91.9516 17.3257C92.4994 15.9788 93.2757 14.8145 94.28 13.8328C96.1748 11.9836 98.6063 11.0591 101.574 11.0591C104.039 11.0591 106.665 11.7211 109.45 13.0452ZM102.464 23.2156L103.731 15.9559C102.91 15.5678 102.031 15.3738 101.095 15.3738C99.7248 15.3738 98.5946 15.8989 97.7045 16.949C96.8369 17.9991 96.4033 19.289 96.4033 20.8186C96.4033 21.9372 96.677 22.8275 97.2248 23.4896C97.7959 24.1288 98.5606 24.4484 99.5192 24.4484C100.547 24.4484 101.528 24.0375 102.464 23.2156ZM113.446 23.5581C113.446 23.0558 113.525 22.3253 113.685 21.3665L114.678 15.7505H111.939L112.692 11.4357H115.432L116.254 6.77858L121.527 6.47039L120.637 11.4357H125.054L124.301 15.7505H119.883L118.925 21.2637C118.833 21.766 118.788 22.1655 118.788 22.4623C118.788 23.6722 119.415 24.2772 120.671 24.2772C121.424 24.2772 122.167 24.0946 122.897 23.7293L122.109 28.2153C121.287 28.512 120.352 28.6604 119.302 28.6604C117.658 28.6604 116.265 28.2381 115.124 27.3934C114.005 26.5487 113.446 25.2703 113.446 23.5581ZM128.79 6.23066C128.79 5.34033 129.098 4.59838 129.714 4.00481C130.331 3.41125 131.084 3.11447 131.975 3.11447C132.773 3.11447 133.447 3.39984 133.995 3.97057C134.543 4.51847 134.817 5.18052 134.817 5.95674C134.817 6.84707 134.509 7.589 133.892 8.18257C133.276 8.77613 132.523 9.0729 131.632 9.0729C130.833 9.0729 130.16 8.79898 129.612 8.25106C129.064 7.68033 128.79 7.00685 128.79 6.23066ZM125.263 28.2838L128.242 11.4357H133.447L130.468 28.2838H125.263ZM135.239 20.8528C135.239 18.1133 136.175 15.7847 138.047 13.867C139.873 11.995 142.202 11.0591 145.032 11.0591C147.452 11.0591 149.45 11.7668 151.025 13.1822C152.623 14.5976 153.422 16.4924 153.422 18.8667C153.422 21.6062 152.486 23.9348 150.614 25.8524C148.788 27.7244 146.459 28.6604 143.628 28.6604C141.209 28.6604 139.2 27.9527 137.601 26.5373C136.026 25.1219 135.239 23.2271 135.239 20.8528ZM140.444 20.5104C140.444 21.6062 140.741 22.4965 141.334 23.1814C141.95 23.8663 142.807 24.2087 143.902 24.2087C145.158 24.2087 146.163 23.7749 146.916 22.9075C147.783 21.903 148.217 20.6702 148.217 19.2091C148.217 18.1133 147.909 17.2229 147.293 16.5381C146.699 15.8532 145.854 15.5108 144.759 15.5108C143.503 15.5108 142.498 15.9445 141.745 16.812C140.878 17.8165 140.444 19.0493 140.444 20.5104ZM155.259 28.2838L158.239 11.4357H163.341L163.067 12.9767L163.136 13.011C164.711 11.7097 166.435 11.0591 168.307 11.0591C169.904 11.0591 171.172 11.5385 172.107 12.4973C173.044 13.4561 173.512 14.7232 173.512 16.2984C173.512 16.8463 173.443 17.5312 173.306 18.353L171.56 28.2838H166.354L168.032 18.7639C168.124 18.2617 168.17 17.8508 168.17 17.5312C168.17 16.9376 167.998 16.4582 167.656 16.0929C167.313 15.7277 166.789 15.545 166.081 15.545C164.825 15.545 163.615 16.013 162.451 16.949L160.464 28.2838H155.259Z" fill="#35444D"/>
</g>
</g>
<defs>
<linearGradient id="paint0_linear_72_2541" x1="0.367555" y1="29.1364" x2="27.7444" y2="-19.4605" gradientUnits="userSpaceOnUse">
<stop stop-color="#F37C21"/>
<stop offset="1" stop-color="#FDA600"/>
</linearGradient>
<clipPath id="clip0_72_2541">
<rect width="175" height="31" fill="white"/>
</clipPath>
<clipPath id="clip1_72_2541">
<rect width="175" height="27.4889" fill="white" transform="translate(0 1.75555)"/>
</clipPath>
</defs>
</svg>
