<svg width="48" height="48" viewBox="0 0 48 48" fill="none" xmlns="http://www.w3.org/2000/svg">
<path fill-rule="evenodd" clip-rule="evenodd" d="M37.925 10.6167C35.3396 8.36444 32.1784 6.72346 28.8112 6.02222C25.2712 5.2824 21.5142 5.45996 18.089 6.65158C14.708 7.82516 11.6076 9.85176 9.29166 12.5938C7.868 14.2785 6.691 16.1883 5.85886 18.2367C5.37556 19.4265 5.0098 20.6634 4.7764 21.929C4.09944 25.594 4.37108 29.4504 5.74242 32.929C6.17258 34.0192 6.66222 35.0872 7.26144 36.0968C7.84982 37.0872 8.54564 37.9926 9.27918 38.876C10.6009 40.4594 12.2065 41.7868 13.9444 42.8844C14.5375 43.2538 15.2936 43.2696 15.9521 43.1156C16.6411 42.953 17.1821 42.4428 17.539 41.8642C17.8836 41.3002 17.9474 40.481 17.7702 39.8566C17.5742 39.166 17.1133 38.644 16.5188 38.2696C16.2529 38.103 15.99 37.9274 15.733 37.7456C14.7076 36.9524 13.7689 36.0578 12.9383 35.0628C12.1386 34.0186 11.4599 32.8938 10.9097 31.7032C10.3972 30.4544 10.0301 29.1542 9.81042 27.8226C9.6551 26.541 9.64184 25.2478 9.76978 23.9628C9.95558 22.6754 10.2783 21.4124 10.7369 20.1946C11.2351 19.0213 11.8591 17.9029 12.5958 16.8626C13.3863 15.8382 14.2847 14.9015 15.2765 14.074C16.3089 13.2834 17.4236 12.6103 18.6039 12.0658C19.856 11.5511 21.1598 11.1811 22.4956 10.9613C23.779 10.8053 25.074 10.7918 26.361 10.92C27.6482 11.1058 28.9114 11.4284 30.129 11.8871C31.3024 12.3853 32.4208 13.0092 33.461 13.746C33.5636 13.8251 33.6652 13.9052 33.7658 13.9864L30.44 13.9397C29.7236 13.9296 29.085 14.2193 28.571 14.6823C28.0418 15.1526 27.808 15.8584 27.7686 16.5371C27.7332 17.1972 28.066 17.9483 28.5184 18.4137C28.993 18.9019 29.6942 19.2066 30.3732 19.2161L31.6196 19.2336L37.0452 19.3098L40.4482 19.3576C41.8736 19.3776 43.1034 18.1819 43.1234 16.7565L43.141 15.5102L43.2172 10.0846L43.2652 6.68156C43.2714 5.9688 42.9818 5.33026 42.5152 4.80492C42.045 4.27582 41.339 4.04196 40.6604 4.00258C40.0002 3.96718 39.2492 4.3 38.7838 4.75252C38.2956 5.22712 37.991 5.92822 37.9814 6.60736L37.9638 7.85366L37.925 10.6167ZM38.3102 33.9576V35.1102V35.522V41.3566C38.3102 42.0692 38.611 42.7078 39.0808 43.225C39.561 43.7422 40.2682 43.9638 40.949 43.9954C41.6088 44.027 42.3582 43.684 42.8174 43.225C43.2924 42.7446 43.5878 42.0322 43.5878 41.3566V40.3908V35.522V33.5458V27.6048V26.639C43.5878 25.9634 43.2924 25.251 42.8174 24.7706C42.3582 24.3116 41.6088 23.9684 40.949 24.0002C40.2682 24.0318 39.561 24.2534 39.0808 24.7706C38.611 25.2878 38.3102 25.9264 38.3102 26.639V33.5458V33.9576ZM29.902 38.238V41.3592C29.902 42.0716 30.2028 42.7102 30.6726 43.2274C31.1528 43.7446 31.86 43.9662 32.5408 43.998C33.2006 44.0296 33.95 43.6866 34.4092 43.2274C34.8842 42.7472 35.1796 42.0346 35.1796 41.3592V40.3934V33.5484H35.176V31.393V30.4272C35.176 29.7518 34.8804 29.0392 34.4054 28.559C33.9464 28.0998 33.1968 27.7568 32.5372 27.7884C31.8564 27.8202 31.1492 28.0418 30.669 28.559C30.1992 29.0762 29.8984 29.7148 29.8984 30.4272V37.8264V38.238H29.902ZM21.4918 41.3584V39.43H21.4882V39.0182V34.5992C21.4882 33.8866 21.789 33.2482 22.2588 32.731C22.739 32.2138 23.4462 31.992 24.127 31.9604C24.7868 31.9288 25.5362 32.2718 25.9954 32.731C26.4702 33.2112 26.7658 33.9236 26.7658 34.5992V36.5276H26.7694V40.3926V41.3584C26.7694 42.0338 26.474 42.7464 25.999 43.2266C25.5398 43.6858 24.7904 44.0288 24.1306 43.997C23.4498 43.9654 22.7426 43.7438 22.2624 43.2266C21.7928 42.7094 21.4918 42.0708 21.4918 41.3584Z" fill="#F37C21"/>
</svg>
