<svg width="49" height="48" viewBox="0 0 49 48" fill="none" xmlns="http://www.w3.org/2000/svg">
<path d="M36.4287 43.9524C36.1747 43.9524 35.9366 43.913 35.7144 43.8343C35.4922 43.7543 35.2858 43.619 35.0953 43.4286L25.0001 33.3333V31.4286L29.8096 26.619H31.7144L41.8096 36.7143C42.0001 36.9048 42.1353 37.1111 42.2153 37.3333C42.2941 37.5556 42.3334 37.7937 42.3334 38.0476C42.3334 38.3016 42.2941 38.5397 42.2153 38.7619C42.1353 38.9841 42.0001 39.1905 41.8096 39.381L37.762 43.4286C37.5715 43.619 37.3652 43.7543 37.143 43.8343C36.9207 43.913 36.6826 43.9524 36.4287 43.9524ZM36.4287 39.4286L37.8096 38.0476L29.7144 29.9524L28.3334 31.3333L36.4287 39.4286ZM10.2858 44C10.0318 44 9.78613 43.9524 9.54867 43.8571C9.30994 43.7619 9.09533 43.619 8.90485 43.4286L4.90486 39.4286C4.71439 39.2381 4.57153 39.0235 4.47629 38.7848C4.38105 38.5473 4.33344 38.3016 4.33344 38.0476C4.33344 37.7937 4.38105 37.5556 4.47629 37.3333C4.57153 37.1111 4.71439 36.9048 4.90486 36.7143L15.0001 26.619H19.0477L20.6668 25L12.8096 17.1429H10.0953L4.33344 11.381L9.71439 6L15.4763 11.7619V14.4762L23.3334 22.3333L28.8572 16.8095L26.8096 14.7619L29.4763 12.0952H24.0953L22.762 10.7619L29.5239 4L30.8572 5.33333V10.7143L33.5239 8.04762L40.2858 14.8095C40.8572 15.3492 41.2782 15.9683 41.5487 16.6667C41.8179 17.3651 41.9525 18.0794 41.9525 18.8095C41.9525 19.5397 41.8179 20.254 41.5487 20.9524C41.2782 21.6508 40.8572 22.2857 40.2858 22.8571L36.2382 18.8095L33.5715 21.4762L31.5715 19.4762L21.7144 29.3333V33.3333L11.6191 43.4286C11.4287 43.619 11.2223 43.7619 11.0001 43.8571C10.7779 43.9524 10.5398 44 10.2858 44ZM10.2858 39.4286L18.3811 31.3333L17.0001 29.9524L8.90485 38.0476L10.2858 39.4286Z" fill="#F37C21"/>
</svg>
