<svg width="48" height="48" viewBox="0 0 48 48" fill="none" xmlns="http://www.w3.org/2000/svg">
<path fill-rule="evenodd" clip-rule="evenodd" d="M33 21.6C33 27.3439 28.3439 32 22.6 32C16.8562 32 12.2 27.3439 12.2 21.6C12.2 15.8562 16.8562 11.2 22.6 11.2C28.3439 11.2 33 15.8562 33 21.6ZM31.0189 32.2816C28.7032 34.1093 25.7791 35.2 22.6 35.2C15.0889 35.2 9 29.1111 9 21.6C9 14.0889 15.0889 8 22.6 8C30.1111 8 36.2 14.0889 36.2 21.6C36.2 24.7791 35.1093 27.7032 33.2816 30.0189L40.5314 37.2687C41.1562 37.8935 41.1562 38.9066 40.5314 39.5314C39.9066 40.1562 38.8935 40.1562 38.2687 39.5314L31.0189 32.2816Z" fill="#E3682A"/>
</svg>
