<svg width="48" height="48" viewBox="0 0 48 48" fill="none" xmlns="http://www.w3.org/2000/svg">
<path fill-rule="evenodd" clip-rule="evenodd" d="M17.7593 4.60103C18.5606 5.4024 18.5606 6.70154 17.7593 7.5029L11.0046 14.2576H36.8222C37.9562 14.2576 38.8736 15.175 38.8736 16.309C38.8736 17.4429 37.954 18.3604 36.8222 18.3604H6.05132C5.22094 18.3604 4.47314 17.8603 4.15618 17.0947C3.8392 16.329 4.01332 15.4451 4.60038 14.8603L14.8574 4.60103C15.6587 3.79966 16.9579 3.79966 17.7593 4.60103Z" fill="#F37C21"/>
<path fill-rule="evenodd" clip-rule="evenodd" d="M9.12634 31.694C9.12634 30.56 10.0438 29.6426 11.1777 29.6426H41.9488C42.7792 29.6426 43.5268 30.1426 43.8438 30.9082C44.1608 31.6738 43.9868 32.5578 43.3996 33.1426L33.1426 43.3994C32.3414 44.2008 31.0422 44.2008 30.2408 43.3994C29.4394 42.5982 29.4394 41.299 30.2408 40.4976L36.9954 33.743H11.1777C10.046 33.7452 9.12634 32.8278 9.12634 31.694Z" fill="#F37C21"/>
</svg>
