<svg width="48" height="48" viewBox="0 0 48 48" fill="none" xmlns="http://www.w3.org/2000/svg">
<path d="M35.7648 44H6.35294C5.17648 44 4 42.8234 4 41.647V6.35294C4 5.17648 5.17648 4 6.35294 4H35.7648C40.1766 4 44 7.82352 44 12.2353V35.7648C44 40.1766 40.1766 44 35.7648 44ZM8.7059 39.2942H35.7648C37.8234 39.2942 39.2942 37.8234 39.2942 35.7648V12.2353C39.2942 10.1765 37.8234 8.7059 35.7648 8.7059H8.7059V39.2942Z" fill="#F37C21"/>
<path d="M15.1739 32.2338C13.9974 32.2338 12.8209 31.0576 12.8209 29.881V26.9396C12.8209 25.7634 13.9974 24.5868 15.1739 24.5868C16.3503 24.5868 17.5268 25.7634 17.5268 26.9396V29.881C17.5268 31.0576 16.3503 32.2338 15.1739 32.2338Z" fill="#F37C21"/>
<path d="M24.0004 32.2366C22.8238 32.2366 21.6474 31.0604 21.6474 29.8838V18.1189C21.6474 16.9424 22.8238 15.7659 24.0004 15.7659C25.1768 15.7659 26.3532 16.9424 26.3532 18.1189V29.8838C26.3532 31.0604 25.1768 32.2366 24.0004 32.2366Z" fill="#F37C21"/>
<path d="M32.821 32.2356C31.6446 32.2356 30.4682 31.0592 30.4682 29.8828V24.0004C30.4682 22.8238 31.6446 21.6474 32.821 21.6474C33.9976 21.6474 35.1742 22.8238 35.1742 24.0004V29.8828C35.1742 31.0592 33.9976 32.2356 32.821 32.2356Z" fill="#F37C21"/>
</svg>
