<svg width="48" height="48" viewBox="0 0 48 48" fill="none" xmlns="http://www.w3.org/2000/svg">
<path d="M42.58 11.78L22.58 31.78C21.8 32.56 20.54 32.56 19.76 31.78L14.1 26.12C13.32 25.34 13.32 24.08 14.1 23.3C14.88 22.52 16.14 22.52 16.92 23.3L21.16 27.54L39.74 8.96001C40.52 8.18001 41.78 8.18001 42.56 8.96001C43.36 9.74001 43.36 11 42.58 11.78ZM24 40C14.58 40 7.04 31.82 8.1 22.2C8.88 15.16 14.34 9.38001 21.32 8.22001C24.94 7.62001 28.38 8.26001 31.3 9.78001C32.08 10.18 33.02 10.04 33.64 9.42001C34.6 8.46001 34.36 6.84001 33.16 6.22001C30.22 4.72001 26.9 3.90001 23.36 4.00001C13.08 4.32001 4.54 12.68 4.02 22.94C3.44 34.48 12.6 44 24 44C26.4 44 28.68 43.58 30.82 42.8C32.18 42.3 32.56 40.54 31.52 39.5C30.98 38.96 30.16 38.76 29.44 39.04C27.74 39.66 25.9 40 24 40ZM38 30H34C32.9 30 32 30.9 32 32C32 33.1 32.9 34 34 34H38V38C38 39.1 38.9 40 40 40C41.1 40 42 39.1 42 38V34H46C47.1 34 48 33.1 48 32C48 30.9 47.1 30 46 30H42V26C42 24.9 41.1 24 40 24C38.9 24 38 24.9 38 26V30Z" fill="#F37C21"/>
</svg>
