<svg width="48" height="48" viewBox="0 0 48 48" fill="none" xmlns="http://www.w3.org/2000/svg">
<path fill-rule="evenodd" clip-rule="evenodd" d="M39.1768 16.2462C41.8406 16.2462 44 14.0868 44 11.4231C44 8.75936 41.8406 6.59998 39.1768 6.59998C36.5132 6.59998 34.3538 8.75936 34.3538 11.4231C34.3538 12.3284 34.6032 13.1755 35.037 13.8993L30.393 22.7184C29.5844 22.7434 28.8258 22.9674 28.1648 23.343L21.5422 18.5707C21.5732 18.3494 21.5894 18.1234 21.5894 17.8935C21.5894 15.2298 19.43 13.0704 16.7662 13.0704C14.1025 13.0704 11.9431 15.2298 11.9431 17.8935C11.9431 18.9532 12.2849 19.9331 12.8642 20.729L8.33448 31.7806C5.90024 32.0256 4 34.0806 4 36.5794C4 39.243 6.15938 41.4024 8.82312 41.4024C11.4869 41.4024 13.6462 39.243 13.6462 36.5794C13.6462 35.4218 13.2385 34.3596 12.5587 33.5282L16.9922 22.7114C17.6484 22.6812 18.2704 22.5198 18.8326 22.2528L25.7316 27.2244C25.725 27.3284 25.7216 27.4334 25.7216 27.5392C25.7216 30.203 27.881 32.3622 30.5446 32.3622C33.2084 32.3622 35.3678 30.203 35.3678 27.5392C35.3678 26.5034 35.0412 25.5438 34.4856 24.7578L38.97 16.2419C39.0386 16.2448 39.1076 16.2462 39.1768 16.2462ZM39.1768 13.3891C40.2626 13.3891 41.1428 12.5089 41.1428 11.4231C41.1428 10.3373 40.2626 9.45712 39.1768 9.45712C38.091 9.45712 37.2108 10.3373 37.2108 11.4231C37.2108 12.5089 38.091 13.3891 39.1768 13.3891ZM16.7662 19.8595C17.852 19.8595 18.7322 18.9793 18.7322 17.8935C18.7322 16.8077 17.852 15.9275 16.7662 15.9275C15.6805 15.9275 14.8003 16.8077 14.8003 17.8935C14.8003 18.9793 15.6805 19.8595 16.7662 19.8595ZM8.82312 38.5454C9.9089 38.5454 10.7891 37.6652 10.7891 36.5794C10.7891 35.4936 9.9089 34.6134 8.82312 34.6134C7.73734 34.6134 6.85714 35.4936 6.85714 36.5794C6.85714 37.6652 7.73734 38.5454 8.82312 38.5454ZM32.5106 27.5392C32.5106 28.625 31.6304 29.5052 30.5446 29.5052C29.4588 29.5052 28.5786 28.625 28.5786 27.5392C28.5786 26.4534 29.4588 25.5732 30.5446 25.5732C31.6304 25.5732 32.5106 26.4534 32.5106 27.5392Z" fill="#F37C21"/>
</svg>
