<svg width="48" height="48" viewBox="0 0 48 48" fill="none" xmlns="http://www.w3.org/2000/svg">
<path d="M40.9 12L41.88 9.87998L44 8.89998C44.78 8.53998 44.78 7.43998 44 7.07998L41.88 6.09998L40.9 3.99998C40.54 3.21998 39.44 3.21998 39.08 3.99998L38.1 6.11998L36 7.09998C35.22 7.45998 35.22 8.55998 36 8.91998L38.12 9.89998L39.1 12C39.44 12.78 40.56 12.78 40.9 12Z" fill="#F37C21"/>
<path d="M17.9 12L18.88 9.87998L21 8.89998C21.78 8.53998 21.78 7.43998 21 7.07998L18.88 6.11998L17.9 3.99998C17.56 3.21998 16.44 3.21998 16.1 3.99998L15.12 6.11998L13 7.09998C12.22 7.45998 12.22 8.55998 13 8.91998L15.12 9.89998L16.1 12C16.44 12.78 17.56 12.78 17.9 12Z" fill="#F37C21"/>
<path d="M39.1 27L38.12 29.12L36 30.1C35.22 30.46 35.22 31.56 36 31.92L38.12 32.9L39.1 35.02C39.46 35.8 40.56 35.8 40.92 35.02L41.9 32.9L44 31.9C44.78 31.54 44.78 30.44 44 30.08L41.88 29.1L40.9 26.98C40.56 26.22 39.44 26.22 39.1 27Z" fill="#F37C21"/>
<path d="M35.42 18.24L29.76 12.58C28.98 11.8 27.72 11.8 26.94 12.58L4.58003 34.92C3.80003 35.7 3.80003 36.96 4.58003 37.74L10.24 43.4C11.02 44.18 12.28 44.18 13.06 43.4L35.4 21.06C36.2 20.3 36.2 19.02 35.42 18.24ZM28.42 22.42L25.6 19.6L28.36 16.84L31.18 19.66L28.42 22.42Z" fill="#F37C21"/>
</svg>
