<svg width="48" height="48" viewBox="0 0 48 48" fill="none" xmlns="http://www.w3.org/2000/svg">
<path d="M28.34 27.42L31.14 22.58C31.32 22.28 31.24 21.9 30.98 21.68L28.02 19.36C28.08 18.92 28.12 18.46 28.12 18C28.12 17.54 28.08 17.08 28.02 16.62L30.98 14.3C31.24 14.08 31.32 13.7 31.14 13.4L28.34 8.56C28.16 8.26 27.8 8.14 27.48 8.26L24 9.66C23.28 9.1 22.5 8.64 21.64 8.28L21.12 4.58C21.06 4.26 20.76 4 20.42 4H14.82C14.48 4 14.18 4.26 14.12 4.6L13.6 8.3C12.76 8.66 11.96 9.12 11.24 9.68L7.76001 8.28C7.44001 8.16 7.08001 8.28 6.90001 8.58L4.10001 13.42C3.92001 13.72 4.00001 14.1 4.26001 14.32L7.22001 16.64C7.16001 17.08 7.12001 17.54 7.12001 18C7.12001 18.46 7.16001 18.92 7.22001 19.38L4.26001 21.7C4.00001 21.92 3.92001 22.3 4.10001 22.6L6.90001 27.44C7.08001 27.74 7.44001 27.86 7.76001 27.74L11.24 26.34C11.96 26.9 12.74 27.36 13.6 27.72L14.12 31.42C14.18 31.74 14.48 32 14.82 32H20.42C20.76 32 21.06 31.74 21.12 31.4L21.64 27.7C22.48 27.34 23.28 26.88 24 26.32L27.48 27.72C27.8 27.84 28.16 27.72 28.34 27.42ZM17.62 22C15.42 22 13.62 20.2 13.62 18C13.62 15.8 15.42 14 17.62 14C19.82 14 21.62 15.8 21.62 18C21.62 20.2 19.82 22 17.62 22Z" fill="#F37C21"/>
<path d="M43.84 37.34L41.92 35.86C41.96 35.58 42 35.28 42 34.98C42 34.68 41.98 34.38 41.92 34.1L43.82 32.62C43.98 32.48 44.04 32.24 43.92 32.04L42.12 28.94C42.02 28.74 41.78 28.68 41.56 28.74L39.34 29.64C38.88 29.28 38.38 28.98 37.82 28.76L37.48 26.4C37.46 26.16 37.26 26 37.06 26H33.48C33.26 26 33.06 26.16 33.04 26.38L32.7 28.74C32.16 28.98 31.64 29.26 31.18 29.62L28.96 28.72C28.76 28.64 28.52 28.72 28.4 28.92L26.6 32.02C26.5 32.22 26.52 32.46 26.7 32.6L28.6 34.08C28.56 34.36 28.54 34.66 28.54 34.96C28.54 35.26 28.56 35.56 28.6 35.84L26.7 37.32C26.54 37.46 26.48 37.7 26.6 37.9L28.4 41C28.5 41.2 28.74 41.26 28.96 41.2L31.18 40.3C31.64 40.66 32.14 40.96 32.7 41.18L33.04 43.54C33.08 43.76 33.26 43.92 33.48 43.92H37.06C37.28 43.92 37.48 43.76 37.5 43.54L37.84 41.18C38.38 40.94 38.9 40.66 39.34 40.3L41.58 41.2C41.78 41.28 42.02 41.2 42.14 41L43.94 37.9C44.06 37.72 44 37.48 43.84 37.34ZM35.26 37.66C33.78 37.66 32.56 36.46 32.56 34.96C32.56 33.46 33.76 32.26 35.26 32.26C36.76 32.26 37.96 33.46 37.96 34.96C37.96 36.46 36.74 37.66 35.26 37.66Z" fill="#F37C21"/>
</svg>
