<svg width="48" height="48" viewBox="0 0 48 48" fill="none" xmlns="http://www.w3.org/2000/svg">
<path d="M10.5212 43.8446C8.17765 43.8446 6.12647 42.3804 5.53947 40.0348C4.36769 36.2248 3.78067 32.417 4.07529 28.3148C4.07529 24.507 4.66231 20.4048 5.54169 16.5971C6.12871 14.2535 8.17765 12.7872 10.8158 12.7872H37.1864C39.53 12.7872 41.5812 14.2513 42.4606 16.5971C43.6324 20.407 44.2194 24.2148 43.9248 28.317C43.9248 32.127 43.34 36.227 42.4606 40.037C41.8736 42.3804 39.53 44.1392 37.1864 43.8468H10.5212V43.8446ZM10.5212 17.4765C10.2288 17.4765 9.93419 17.7689 9.93419 17.7689C9.05481 21.2842 8.47003 24.8018 8.47003 28.317C8.47003 31.8324 9.05703 35.3498 9.93419 38.8652C9.93419 39.1576 10.2266 39.4522 10.5212 39.1576H36.8918C37.1842 39.1576 37.4788 38.8652 37.4788 38.8652C38.3582 35.3498 38.943 31.8324 38.943 28.317C38.943 24.8018 38.3582 21.2842 37.4788 18.0612C37.3494 17.6193 37.2356 17.5724 36.8918 17.4742L10.5212 17.4765Z" fill="#F37C21"/>
<path d="M16.381 32.7128C18.8094 32.7128 20.7758 30.7442 20.7758 28.3182C20.7758 25.8898 18.8071 23.9234 16.381 23.9234C13.9549 23.9234 11.9863 25.892 11.9863 28.3182C11.9863 30.7466 13.9527 32.7128 16.381 32.7128Z" fill="#F37C21"/>
<path d="M31.0296 32.7128C33.458 32.7128 35.4244 30.7442 35.4244 28.3182C35.4244 25.8898 33.4558 23.9234 31.0296 23.9234C28.6036 23.9234 26.635 25.892 26.635 28.3182C26.635 30.7466 28.6036 32.7128 31.0296 32.7128Z" fill="#F37C21"/>
<path d="M23.7046 17.4787C22.5328 17.4787 21.361 16.3069 21.361 15.1352V6.34354C21.361 5.17176 22.5328 4 23.7046 4C24.8764 4 26.0482 5.17176 26.0482 6.34354V15.1329C26.0482 16.3047 24.8764 17.4787 23.7046 17.4787Z" fill="#F37C21"/>
</svg>
