<svg width="48" height="48" viewBox="0 0 48 48" fill="none" xmlns="http://www.w3.org/2000/svg">
<path d="M22.6 4.52001L10.6 9.02001C9.04 9.62001 8 11.1 8 12.78V22.2C8 32.3 14.82 41.72 24 44.02C33.18 41.72 40 32.3 40 22.2V12.78C40 11.12 38.96 9.62001 37.4 9.04001L25.4 4.54001C24.5 4.18001 23.5 4.18001 22.6 4.52001ZM20.46 29.66L16.22 25.42C15.44 24.64 15.44 23.38 16.22 22.6C17 21.82 18.26 21.82 19.04 22.6L21.86 25.42L28.94 18.34C29.72 17.56 30.98 17.56 31.76 18.34C32.54 19.12 32.54 20.38 31.76 21.16L23.28 29.64C22.52 30.44 21.24 30.44 20.46 29.66Z" fill="#F37C21"/>
</svg>
