<svg width="48" height="48" viewBox="0 0 48 48" fill="none" xmlns="http://www.w3.org/2000/svg">
<path d="M28.12 19.88L26 18.9C25.22 18.54 25.22 17.44 26 17.08L28.12 16.1L29.1 14C29.46 13.22 30.56 13.22 30.92 14L31.9 16.12L34 17.1C34.78 17.46 34.78 18.56 34 18.92L31.88 19.9L30.9 22C30.54 22.78 29.44 22.78 29.08 22L28.12 19.88ZM8.90004 26L9.88004 23.88L12 22.9C12.78 22.54 12.78 21.44 12 21.08L9.88004 20.1L8.90004 18C8.56004 17.22 7.44004 17.22 7.10004 18L6.12004 20.12L4.00004 21.1C3.22004 21.46 3.22004 22.56 4.00004 22.92L6.12004 23.9L7.10004 26C7.44004 26.78 8.56004 26.78 8.90004 26ZM17.92 15.98L19.18 13.18L21.98 11.92C22.76 11.56 22.76 10.46 21.98 10.1L19.18 8.84002L17.92 6.04002C17.56 5.26002 16.46 5.26002 16.1 6.04002L14.84 8.84002L12.04 10.1C11.26 10.46 11.26 11.56 12.04 11.92L14.84 13.18L16.1 15.98C16.44 16.76 17.56 16.76 17.92 15.98ZM44.68 16.54C43.88 15.74 42.54 15.76 41.78 16.62L29 30.98L22.42 24.4C21.64 23.62 20.38 23.62 19.6 24.4L7.52004 36.5C6.70004 37.32 6.70004 38.68 7.52004 39.5C8.34004 40.32 9.70004 40.32 10.52 39.5L21.02 28.98L27.52 35.48C28.34 36.3 29.66 36.26 30.42 35.4L44.76 19.26C45.46 18.48 45.42 17.28 44.68 16.54Z" fill="#F37C21"/>
</svg>
